<svg width="16" height="16" viewBox="0 0 16 16" fill="none" xmlns="http://www.w3.org/2000/svg">
    <g clip-path="url(#clip0_31_15)">
        <path d="M7.83027 6.52921L9.18791 7.88685L11.2244 9.92332C11.5993 10.2982 11.5993 10.9061 11.2244 11.281C10.8495 11.6558 10.2416 11.6558 9.86673 11.281L7.83026 9.2445L6.47262 7.88685L4.43615 5.85039C4.06127 5.47551 4.06127 4.86762 4.43615 4.49274C4.81103 4.11786 5.41892 4.11786 5.7938 4.49274L7.83027 6.52921Z"
              fill="#B6B6B6"/>
        <path d="M9.18791 8.11315L7.83027 9.47079L5.7938 11.5073C5.41892 11.8821 4.81103 11.8821 4.43615 11.5073C4.06127 11.1324 4.06127 10.5245 4.43615 10.1496L6.47262 8.11314L7.83027 6.7555L9.86674 4.71903C10.2416 4.34415 10.8495 4.34415 11.2244 4.71903C11.5993 5.09391 11.5993 5.7018 11.2244 6.07668L9.18791 8.11315Z"
              fill="#B6B6B6"/>
    </g>
    <defs>
        <clipPath id="clip0_31_15">
            <rect width="10" height="10" fill="white" transform="translate(0.928711 8) rotate(-45)"/>
        </clipPath>
    </defs>
</svg>
